#!OML:ASF H:\GeneralSubjects\Female5\Project 1\Capture day 1\Session 1\Female5.ASF
:FULLY-SPECIFIED
:DEGREES
573
root -23.6844 15.7155 -6.69068 -249.128 -78.3827 -99.9372
lowerback 6.70603 -0.335106 -2.42873
upperback -10.7814 -0.401176 7.46564
thorax -15.8893 0.530018 10.1282
lowerneck -19.6235 -5.13661 -4.85178
upperneck 20.3378 -8.79755 11.1677
head 10.5259 -3.25267 3.44122
rclavicle 5.36719e-015 -1.70955e-014
rhumerus -40.7064 22.023 -73.0172
rradius 22.5634
rwrist -16.3641
rhand -20.1448 -22.1725
rfingers 7.12502
rthumb 6.20001 -52.0617
lclavicle 5.36719e-015 -1.70955e-014
lhumerus -45.9281 23.7602 68.0447
lradius 34.7137
lwrist -19.7475
lhand -41.7675 58.1468
lfingers 7.12502
lthumb -14.6712 87.6077
rfemur 2.10261 10.1783 43.8193
rtibia -13.6822
rfoot -22.7073 -23.8295
rtoes 8.35602
lfemur -28.3996 9.7855 -1.55416
ltibia 23.4314
lfoot -46.0735 20.2579
ltoes -52.1714
574
root -23.6872 15.7386 -6.66099 -248.054 -78.5611 -100.785
lowerback 6.77308 -0.344793 -2.6394
upperback -10.7481 -0.443864 7.42982
thorax -15.8851 0.534216 10.2184
lowerneck -19.3316 -5.06925 -5.10618
upperneck 20.4376 -8.66443 11.2304
head 10.5081 -3.21376 3.53371
rclavicle -1.47101e-014 3.4191e-014
rhumerus -41.4719 23.1572 -73.9054
rradius 21.8601
rwrist -13.9304
rhand -17.543 -21.4466
rfingers 7.12502
rthumb 8.71138 -51.2468
lclavicle -1.47101e-014 3.4191e-014
lhumerus -45.8707 23.4678 68.4616
lradius 36.0467
lwrist -19.4129
lhand -41.9816 58.799
lfingers 7.12502
lthumb -14.8775 88.2448
rfemur 1.73029 10.2443 43.4904
rtibia -13.4421
rfoot -22.6283 -23.8691
rtoes 8.09844
lfemur -28.8132 9.11212 -1.92345
ltibia 23.8328
lfoot -46.5644 19.6482
ltoes -52.7111
575
root -23.6909 15.7533 -6.62799 -246.934 -78.5955 -101.713
lowerback 6.85166 -0.350656 -2.64508
upperback -10.6979 -0.45058 7.42275
thorax -15.8717 0.530492 10.214
lowerneck -19.1199 -4.96139 -5.19318
upperneck 20.7072 -8.43392 10.8991
head 10.5272 -3.15248 3.47291
rclavicle -1.19271e-014 4.73108e-014
rhumerus -42.0996 24.1349 -74.6489
rradius 21.3214
rwrist -11.7813
rhand -15.0853 -20.6396
rfingers 7.12502
rthumb 11.0825 -50.327
lclavicle -1.19271e-014 4.73108e-014
lhumerus -45.8343 23.0715 68.8865
lradius 37.2846
lwrist -19.0799
lhand -42.1501 59.1445
lfingers 7.12502
lthumb -15.0397 88.5782
rfemur 1.43771 10.3388 43.2635
rtibia -13.2542
rfoot -22.5657 -23.8487
rtoes 8.08047
lfemur -29.3306 8.76179 -2.15399
ltibia 24.4967
lfoot -46.4188 19.0049
ltoes -53.2245
576
root -23.6961 15.7578 -6.59117 -245.822 -78.5041 -102.671
lowerback 6.94047 -0.354831 -2.4567
upperback -10.6293 -0.425531 7.44169
thorax -15.8458 0.518001 10.1186
lowerneck -19.0403 -4.80976 -5.07928
upperneck 21.1769 -8.11257 10.178
head 10.6075 -3.06805 3.25278
rclavicle -2.88238e-015 -7.55382e-015
rhumerus -42.5347 24.8915 -75.1684
rradius 20.9461
rwrist -10.1845
rhand -12.9384 -19.9724
rfingers 7.12502
rthumb 13.1526 -49.5376
lclavicle -2.88238e-015 -7.55382e-015
lhumerus -45.8028 22.6131 69.2978
lradius 38.3309
lwrist -18.7842
lhand -42.3348 59.0386
lfingers 7.12502
lthumb -15.2177 88.4589
rfemur 1.26976 10.4528 43.1363
rtibia -13.1911
rfoot -22.5246 -23.7583
rtoes 8.3241
lfemur -29.9221 8.65098 -2.25416
ltibia 25.3734
lfoot -45.8338 18.3492
ltoes -53.4858
577
root -23.7037 15.7517 -6.55057 -244.735 -78.2973 -103.651
lowerback 7.04133 -0.356648 -2.09586
upperback -10.539 -0.370403 7.48735
thorax -15.8046 0.49888 9.94606
lowerneck -19.0591 -4.61171 -4.80479
upperneck 21.7628 -7.70579 9.19024
head 10.7264 -2.95847 2.9219
rclavicle 3.49861e-014 -1.28017e-013
rhumerus -42.7254 25.3518 -75.3878
rradius 20.7079
rwrist -9.2155
rhand -11.272 -19.623
rfingers 7.12502
rthumb 14.7584 -49.0776
lclavicle 3.49861e-014 -1.28017e-013
lhumerus -45.7715 22.1187 69.6895
lradius 39.1283
lwrist -18.5093
lhand -42.4957 58.3726
lfingers 7.12502
lthumb -15.3727 87.7811
rfemur 1.27375 10.5865 43.114
rtibia -13.3254
rfoot -22.4766 -23.6071
rtoes 8.81639
lfemur -30.5424 8.71116 -2.21857
ltibia 26.4175
lfoot -44.6976 17.9819
ltoes -53.7163
578
root -23.7145 15.7357 -6.5065 -243.672 -77.9752 -104.651
lowerback 7.153 -0.354453 -1.58489
upperback -10.4287 -0.285924 7.56346
thorax -15.7501 0.476307 9.71467
lowerneck -19.1044 -4.369 -4.44884
upperneck 22.3509 -7.22842 8.1102
head 10.8465 -2.82378 2.55294
rclavicle -8.15017e-015 2.34566e-014
rhumerus -42.6489 25.4634 -75.2626
rradius 20.5803
rwrist -8.82845
rhand -10.3096 -19.6384
rfingers 7.12502
rthumb 15.6855 -49.0227
lclavicle -8.15017e-015 2.34566e-014
lhumerus -45.7455 21.6171 70.053
lradius 39.6376
lwrist -18.2492
lhand -42.5385 57.0152
lfingers 7.12502
lthumb -15.4138 86.4206
rfemur 1.46655 10.7473 43.2049
rtibia -13.6902
rfoot -22.3476 -23.4513
rtoes 9.3888
lfemur -31.1539 8.89938 -2.0292
ltibia 27.5994
lfoot -43.1745 17.9282
ltoes -53.958
579
root -23.7285 15.7118 -6.45946 -242.576 -77.5554 -105.731
lowerback 7.28888 -0.344095 -0.976153
upperback -10.3049 -0.173753 7.66592
thorax -15.6989 0.457073 9.45264
lowerneck -19.1314 -4.09753 -4.05738
upperneck 22.8613 -6.71071 7.03827
head 10.9407 -2.67256 2.1848
rclavicle 3.26007e-014 -9.78021e-014
rhumerus -42.3158 25.1958 -74.7913
rradius 20.5409
rwrist -8.90189
rhand -10.1859 -19.9247
rfingers 7.12502
rthumb 15.8046 -49.2995
lclavicle 3.26007e-014 -9.78021e-014
lhumerus -45.7455 21.1192 70.3828
lradius 39.8516
lwrist -17.9697
lhand -42.3661 54.9024
lfingers 7.12502
lthumb -15.2478 84.3204
rfemur 1.80373 10.9459 43.3742
rtibia -14.2062
rfoot -22.1075 -23.3173
rtoes 9.87327
lfemur -31.7132 9.17482 -1.69291
ltibia 28.885
lfoot -41.4341 18.1325
ltoes -54.2752
580
root -23.7455 15.6829 -6.40933 -241.382 -77.0598 -106.95
lowerback 7.46273 -0.321586 -0.319416
upperback -10.1712 -0.0348678 7.78926
thorax -15.6651 0.447357 9.18428
lowerneck -19.1167 -3.81381 -3.67809
upperneck 23.2393 -6.18256 6.05885
head 10.9915 -2.51233 1.85172
rclavicle -1.71949e-014 2.54444e-014
rhumerus -41.7693 24.5844 -74.0318
rradius 20.5878
rwrist -9.32595
rhand -10.8849 -20.3363
rfingers 7.12502
rthumb 15.1314 -49.7632
lclavicle -1.71949e-014 2.54444e-014
lhumerus -45.7942 20.6137 70.6955
lradius 39.8175
lwrist -17.5667
lhand -41.8324 52.047
lfingers 7.12502
lthumb -14.7337 81.5034
rfemur 2.20707 11.1898 43.5675
rtibia -14.7412
rfoot -21.7831 -23.1972
rtoes 10.0491
lfemur -32.177 9.47232 -1.21618
ltibia 30.2257
lfoot -39.6516 18.4611
ltoes -54.6968
581
root -23.7647 15.6527 -6.35575 -240.023 -76.5164 -108.368
lowerback 7.67478 -0.285242 0.335953
upperback -10.0358 0.126076 7.92363
thorax -15.6576 0.45059 8.92836
lowerneck -19.0172 -3.53242 -3.35393
upperneck 23.4297 -5.67031 5.24148
head 10.9738 -2.34979 1.58316
rclavicle -1.85864e-014 1.43125e-014
rhumerus -41.0889 23.7066 -73.0876
rradius 20.7319
rwrist -10.0194
rhand -12.3091 -20.7362
rfingers 7.12502
rthumb 13.7592 -50.2613
lclavicle -1.85864e-014 1.43125e-014
lhumerus -45.9144 20.0756 71.0063
lradius 39.574
lwrist -16.9436
lhand -40.7301 48.5952
lfingers 7.12502
lthumb -13.6715 78.1262
rfemur 2.61327 11.4886 43.7345
rtibia -15.2033
rfoot -21.4264 -23.0798
rtoes 9.86307
lfemur -32.5066 9.67812 -0.597283
ltibia 31.5661
lfoot -37.815 18.872
ltoes -55.372
582
root -23.7855 15.6246 -6.2982 -238.39 -75.9738 -110.087
lowerback 7.92509 -0.233883 0.924777
upperback -9.90864 0.301063 8.0495
thorax -15.6872 0.469817 8.70189
lowerneck -18.93 -3.27193 -3.01879
upperneck 23.5491 -5.20309 4.48781
head 10.9433 -2.19982 1.32782
rclavicle 2.45499e-014 -6.36111e-014
rhumerus -40.3628 22.667 -72.081
rradius 20.9783
rwrist -10.9451
rhand -14.3136 -21.0368
rfingers 7.12502
rthumb 11.8267 -50.6828
lclavicle 2.45499e-014 -6.36111e-014
lhumerus -46.1264 19.4756 71.3327
lradius 39.1476
lwrist -15.9787
lhand -38.9361 44.9387
lfingers 7.12502
lthumb -11.942 74.5781
rfemur 2.98094 11.8512 43.813
rtibia -15.5281
rfoot -21.0994 -22.9397
rtoes 9.60753
lfemur -32.6714 9.66365 0.132612
ltibia 32.8658
lfoot -36.0188 19.1283
ltoes -56.1228
583
root -23.808 15.6013 -6.23625 -236.413 -75.4684 -112.17
lowerback 8.20042 -0.170376 1.41233
upperback -9.79291 0.479504 8.14276
thorax -15.7464 0.502041 8.49715
lowerneck -18.8447 -3.03924 -2.71102
upperneck 23.582 -4.80109 3.87723
head 10.8948 -2.06502 1.11828
rclavicle 2.55438e-014 -1.04163e-013
rhumerus -39.6547 21.6004 -71.1508
rradius 21.3196
rwrist -12.1399
rhand -16.7453 -21.237
rfingers 7.12502
rthumb 9.48112 -51.0037
lclavicle 2.55438e-014 -1.04163e-013
lhumerus -46.4292 18.8111 71.6777
lradius 38.5619
lwrist -14.5904
lhand -36.4796 41.3473
lfingers 7.12502
lthumb -9.57254 71.1099
rfemur 3.28853 12.284 43.7641
rtibia -15.6871
rfoot -20.8428 -22.782
rtoes 9.44911
lfemur -32.6875 9.3561 0.931961
ltibia 34.1448
lfoot -33.9809 19.2901
ltoes -57.0735
584
root -23.832 15.5854 -6.17021 -234.006 -75.0174 -114.692
lowerback 8.47319 -0.0949394 1.77295
upperback -9.68749 0.653841 8.17863
thorax -15.8139 0.54423 8.2984
lowerneck -18.7731 -2.83689 -2.45012
upperneck 23.5542 -4.4845 3.48226
head 10.841 -1.94688 0.981033
rclavicle 3.75703e-014 -3.02153e-014
rhumerus -38.9942 20.5823 -70.395
rradius 21.7285
rwrist -13.5734
rhand -19.437 -21.3542
rfingers 7.12502
rthumb 6.88334 -51.2223
lclavicle 3.75703e-014 -3.02153e-014
lhumerus -46.8009 18.1193 72.0145
lradius 37.8002
lwrist -12.8695
lhand -33.4712 37.9239
lfingers 7.12502
lthumb -6.66907 67.7989
rfemur 3.53299 12.8045 43.5771
rtibia -15.6943
rfoot -20.6686 -22.6517
rtoes 9.37384
lfemur -32.6251 8.76259 1.74745
ltibia 35.4933
lfoot -31.7076 19.1402
ltoes -58.0037
